<svg width="1913" height="781" viewBox="0 0 1913 781" fill="none" xmlns="http://www.w3.org/2000/svg">
<mask id="mask0_104_266" style="mask-type:alpha" maskUnits="userSpaceOnUse" x="0" y="0" width="1913" height="575">
<rect width="1913" height="575" fill="#282828"/>
</mask>
<g mask="url(#mask0_104_266)">
<rect width="1913" height="575" fill="#27282C"/>
<rect x="346.476" y="343.989" width="698.093" height="978.781" transform="rotate(-41.272 346.476 343.989)" fill="#373737"/>
<rect x="456.726" y="139.701" width="852.018" height="941.223" rx="21" transform="rotate(-23.2772 456.726 139.701)" fill="black" fill-opacity="0.65"/>
<rect x="707.402" y="281.112" width="499.037" height="5.52439" fill="#8C8C8C"/>
<path d="M676.11 196.81H707.694V209.03H676.11V196.81ZM677.238 233H662.01V167.2H711.736V179.42H677.238V233ZM744.916 233.752C739.15 233.752 734.074 232.624 729.688 230.368C725.364 228.112 722.011 225.041 719.63 221.156C717.248 217.208 716.058 212.727 716.058 207.714C716.058 202.638 717.217 198.157 719.536 194.272C721.917 190.324 725.144 187.253 729.218 185.06C733.291 182.804 737.897 181.676 743.036 181.676C747.986 181.676 752.436 182.741 756.384 184.872C760.394 186.94 763.559 189.948 765.878 193.896C768.196 197.781 769.356 202.45 769.356 207.902C769.356 208.466 769.324 209.124 769.262 209.876C769.199 210.565 769.136 211.223 769.074 211.85H727.996V203.296H761.366L755.726 205.834C755.726 203.202 755.193 200.915 754.128 198.972C753.062 197.029 751.59 195.525 749.71 194.46C747.83 193.332 745.636 192.768 743.13 192.768C740.623 192.768 738.398 193.332 736.456 194.46C734.576 195.525 733.103 197.061 732.038 199.066C730.972 201.009 730.44 203.327 730.44 206.022V208.278C730.44 211.035 731.035 213.479 732.226 215.61C733.479 217.678 735.202 219.276 737.396 220.404C739.652 221.469 742.284 222.002 745.292 222.002C747.986 222.002 750.336 221.595 752.342 220.78C754.41 219.965 756.29 218.743 757.982 217.114L765.784 225.574C763.465 228.206 760.551 230.243 757.042 231.684C753.532 233.063 749.49 233.752 744.916 233.752ZM779.119 233V163.252H793.783V233H779.119ZM807.392 233V182.428H822.056V233H807.392ZM814.724 175.378C812.029 175.378 809.836 174.595 808.144 173.028C806.452 171.461 805.606 169.519 805.606 167.2C805.606 164.881 806.452 162.939 808.144 161.372C809.836 159.805 812.029 159.022 814.724 159.022C817.419 159.022 819.612 159.774 821.304 161.278C822.996 162.719 823.842 164.599 823.842 166.918C823.842 169.362 822.996 171.399 821.304 173.028C819.675 174.595 817.481 175.378 814.724 175.378ZM865.557 233.752C861.296 233.752 857.567 232.812 854.371 230.932C851.175 229.052 848.669 226.201 846.851 222.378C845.097 218.493 844.219 213.605 844.219 207.714C844.219 201.761 845.065 196.873 846.757 193.05C848.449 189.227 850.893 186.376 854.089 184.496C857.285 182.616 861.108 181.676 865.557 181.676C870.32 181.676 874.581 182.773 878.341 184.966C882.164 187.097 885.172 190.105 887.365 193.99C889.621 197.875 890.749 202.45 890.749 207.714C890.749 213.041 889.621 217.647 887.365 221.532C885.172 225.417 882.164 228.425 878.341 230.556C874.581 232.687 870.32 233.752 865.557 233.752ZM835.665 251.236V182.428H849.671V192.768L849.389 207.808L850.329 222.754V251.236H835.665ZM863.019 221.72C865.463 221.72 867.625 221.156 869.505 220.028C871.448 218.9 872.983 217.302 874.111 215.234C875.302 213.103 875.897 210.597 875.897 207.714C875.897 204.769 875.302 202.262 874.111 200.194C872.983 198.126 871.448 196.528 869.505 195.4C867.625 194.272 865.463 193.708 863.019 193.708C860.575 193.708 858.382 194.272 856.439 195.4C854.497 196.528 852.961 198.126 851.833 200.194C850.705 202.262 850.141 204.769 850.141 207.714C850.141 210.597 850.705 213.103 851.833 215.234C852.961 217.302 854.497 218.9 856.439 220.028C858.382 221.156 860.575 221.72 863.019 221.72ZM925.664 233.752C919.899 233.752 914.823 232.624 910.436 230.368C906.112 228.112 902.759 225.041 900.378 221.156C897.997 217.208 896.806 212.727 896.806 207.714C896.806 202.638 897.965 198.157 900.284 194.272C902.665 190.324 905.893 187.253 909.966 185.06C914.039 182.804 918.645 181.676 923.784 181.676C928.735 181.676 933.184 182.741 937.132 184.872C941.143 186.94 944.307 189.948 946.626 193.896C948.945 197.781 950.104 202.45 950.104 207.902C950.104 208.466 950.073 209.124 950.01 209.876C949.947 210.565 949.885 211.223 949.822 211.85H908.744V203.296H942.114L936.474 205.834C936.474 203.202 935.941 200.915 934.876 198.972C933.811 197.029 932.338 195.525 930.458 194.46C928.578 193.332 926.385 192.768 923.878 192.768C921.371 192.768 919.147 193.332 917.204 194.46C915.324 195.525 913.851 197.061 912.786 199.066C911.721 201.009 911.188 203.327 911.188 206.022V208.278C911.188 211.035 911.783 213.479 912.974 215.61C914.227 217.678 915.951 219.276 918.144 220.404C920.4 221.469 923.032 222.002 926.04 222.002C928.735 222.002 931.085 221.595 933.09 220.78C935.158 219.965 937.038 218.743 938.73 217.114L946.532 225.574C944.213 228.206 941.299 230.243 937.79 231.684C934.281 233.063 930.239 233.752 925.664 233.752ZM1019.29 234.128C1014.09 234.128 1009.3 233.313 1004.91 231.684C1000.59 229.992 996.796 227.611 993.538 224.54C990.342 221.469 987.835 217.866 986.018 213.73C984.263 209.594 983.386 205.051 983.386 200.1C983.386 195.149 984.263 190.606 986.018 186.47C987.835 182.334 990.373 178.731 993.632 175.66C996.89 172.589 1000.71 170.239 1005.1 168.61C1009.49 166.918 1014.31 166.072 1019.58 166.072C1025.4 166.072 1030.64 167.043 1035.27 168.986C1039.97 170.929 1043.92 173.749 1047.12 177.446L1037.34 186.47C1034.96 183.963 1032.36 182.115 1029.54 180.924C1026.72 179.671 1023.65 179.044 1020.33 179.044C1017.13 179.044 1014.22 179.545 1011.59 180.548C1008.95 181.551 1006.67 182.992 1004.72 184.872C1002.84 186.752 1001.37 188.977 1000.31 191.546C999.303 194.115 998.802 196.967 998.802 200.1C998.802 203.171 999.303 205.991 1000.31 208.56C1001.37 211.129 1002.84 213.385 1004.72 215.328C1006.67 217.208 1008.92 218.649 1011.49 219.652C1014.12 220.655 1017.01 221.156 1020.14 221.156C1023.15 221.156 1026.06 220.686 1028.88 219.746C1031.76 218.743 1034.55 217.083 1037.25 214.764L1045.9 225.762C1042.32 228.457 1038.16 230.525 1033.39 231.966C1028.69 233.407 1023.99 234.128 1019.29 234.128ZM1031.98 223.788V199.066H1045.9V225.762L1031.98 223.788ZM1090.03 233V223.13L1089.09 220.968V203.296C1089.09 200.163 1088.12 197.719 1086.17 195.964C1084.29 194.209 1081.38 193.332 1077.43 193.332C1074.74 193.332 1072.07 193.771 1069.44 194.648C1066.87 195.463 1064.68 196.591 1062.86 198.032L1057.6 187.786C1060.35 185.843 1063.68 184.339 1067.56 183.274C1071.45 182.209 1075.39 181.676 1079.41 181.676C1087.11 181.676 1093.1 183.493 1097.36 187.128C1101.62 190.763 1103.75 196.434 1103.75 204.142V233H1090.03ZM1074.61 233.752C1070.66 233.752 1067.28 233.094 1064.46 231.778C1061.64 230.399 1059.48 228.551 1057.97 226.232C1056.47 223.913 1055.72 221.313 1055.72 218.43C1055.72 215.422 1056.44 212.79 1057.88 210.534C1059.38 208.278 1061.73 206.523 1064.93 205.27C1068.13 203.954 1072.29 203.296 1077.43 203.296H1090.87V211.85H1079.03C1075.58 211.85 1073.2 212.414 1071.89 213.542C1070.63 214.67 1070.01 216.08 1070.01 217.772C1070.01 219.652 1070.73 221.156 1072.17 222.284C1073.67 223.349 1075.71 223.882 1078.28 223.882C1080.72 223.882 1082.91 223.318 1084.86 222.19C1086.8 220.999 1088.21 219.276 1089.09 217.02L1091.34 223.788C1090.28 227.047 1088.34 229.522 1085.52 231.214C1082.7 232.906 1079.06 233.752 1074.61 233.752ZM1117.02 233V182.428H1131.03V196.716L1129.05 192.58C1130.56 189.008 1132.97 186.313 1136.29 184.496C1139.61 182.616 1143.66 181.676 1148.42 181.676V195.212C1147.79 195.149 1147.23 195.118 1146.73 195.118C1146.23 195.055 1145.69 195.024 1145.13 195.024C1141.12 195.024 1137.86 196.183 1135.35 198.502C1132.91 200.758 1131.69 204.299 1131.69 209.124V233H1117.02ZM1154.03 233V224.164L1183.92 188.82L1186.46 193.708H1154.69V182.428H1198.3V191.264L1168.41 226.608L1165.78 221.72H1199.15V233H1154.03ZM1239.56 233V223.13L1238.62 220.968V203.296C1238.62 200.163 1237.65 197.719 1235.71 195.964C1233.83 194.209 1230.92 193.332 1226.97 193.332C1224.27 193.332 1221.61 193.771 1218.98 194.648C1216.41 195.463 1214.22 196.591 1212.4 198.032L1207.13 187.786C1209.89 185.843 1213.21 184.339 1217.1 183.274C1220.98 182.209 1224.93 181.676 1228.94 181.676C1236.65 181.676 1242.64 183.493 1246.9 187.128C1251.16 190.763 1253.29 196.434 1253.29 204.142V233H1239.56ZM1224.15 233.752C1220.2 233.752 1216.82 233.094 1214 231.778C1211.18 230.399 1209.01 228.551 1207.51 226.232C1206.01 223.913 1205.25 221.313 1205.25 218.43C1205.25 215.422 1205.98 212.79 1207.42 210.534C1208.92 208.278 1211.27 206.523 1214.47 205.27C1217.66 203.954 1221.83 203.296 1226.97 203.296H1240.41V211.85H1228.57C1225.12 211.85 1222.74 212.414 1221.42 213.542C1220.17 214.67 1219.54 216.08 1219.54 217.772C1219.54 219.652 1220.26 221.156 1221.7 222.284C1223.21 223.349 1225.25 223.882 1227.81 223.882C1230.26 223.882 1232.45 223.318 1234.39 222.19C1236.34 220.999 1237.75 219.276 1238.62 217.02L1240.88 223.788C1239.82 227.047 1237.87 229.522 1235.05 231.214C1232.23 232.906 1228.6 233.752 1224.15 233.752Z" fill="#E8E8E8"/>
</g>
<mask id="mask1_104_266" style="mask-type:alpha" maskUnits="userSpaceOnUse" x="767" y="385" width="380" height="380">
<circle cx="957" cy="575" r="190" fill="#45C3EB"/>
</mask>
<g mask="url(#mask1_104_266)">
<rect x="558.396" y="552.704" width="592.76" height="400.354" transform="rotate(-28.1812 558.396 552.704)" fill="#EDEDED"/>
</g>
<mask id="mask2_104_266" style="mask-type:alpha" maskUnits="userSpaceOnUse" x="767" y="385" width="380" height="380">
<circle cx="957" cy="575" r="190" fill="#8A5D62"/>
</mask>
<g mask="url(#mask2_104_266)">
<g clip-path="url(#clip0_104_266)">
<path d="M1012 744.5C997.6 724.5 986.333 685.834 985 666.5L916.5 637L888 744.5H1012Z" fill="#F9C9B6" stroke="black" stroke-width="4"/>
<mask id="mask3_104_266" style="mask-type:alpha" maskUnits="userSpaceOnUse" x="888" y="637" width="124" height="118">
<path d="M1012 754.5C997.6 734.5 986.333 685.834 985 666.5L916.5 637L888 754.5H1012Z" fill="#F9C9B6"/>
</mask>
<g mask="url(#mask3_104_266)">
<g style="mix-blend-mode:multiply">
<ellipse cx="982" cy="635" rx="59" ry="54" fill="black"/>
</g>
</g>
<mask id="path-14-inside-1_104_266" fill="white">
<path fill-rule="evenodd" clip-rule="evenodd" d="M1041.89 575.917C1041.86 575.802 1041.83 575.686 1041.8 575.57C1041.78 575.454 1041.75 575.339 1041.72 575.223L1025.32 506.786C1025.31 506.718 1025.29 506.651 1025.28 506.583C1025.26 506.515 1025.24 506.447 1025.23 506.379L1025.15 506.076L1025.15 506.076C1014.93 464.631 973.157 439.148 931.583 449.109C890.009 459.07 864.316 500.718 873.989 542.293L873.987 542.294L890.979 613.212L890.993 613.208C901.595 654.113 943.063 679.149 984.33 669.262C1025.6 659.375 1051.22 618.265 1042.13 576.997L1042.14 576.994L1041.89 575.917Z"/>
</mask>
<path fill-rule="evenodd" clip-rule="evenodd" d="M1041.89 575.917C1041.86 575.802 1041.83 575.686 1041.8 575.57C1041.78 575.454 1041.75 575.339 1041.72 575.223L1025.32 506.786C1025.31 506.718 1025.29 506.651 1025.28 506.583C1025.26 506.515 1025.24 506.447 1025.23 506.379L1025.15 506.076L1025.15 506.076C1014.93 464.631 973.157 439.148 931.583 449.109C890.009 459.07 864.316 500.718 873.989 542.293L873.987 542.294L890.979 613.212L890.993 613.208C901.595 654.113 943.063 679.149 984.33 669.262C1025.6 659.375 1051.22 618.265 1042.13 576.997L1042.14 576.994L1041.89 575.917Z" fill="#F9C9B6"/>
<path d="M1041.89 575.917L1037.99 576.832L1037.99 576.841L1038 576.849L1041.89 575.917ZM1041.72 575.223L1037.83 576.155L1037.83 576.164L1037.83 576.173L1041.72 575.223ZM1025.32 506.786L1021.43 507.708L1021.43 507.718L1025.32 506.786ZM1025.23 506.379L1021.34 507.311L1021.34 507.322L1025.23 506.379ZM1025.15 506.076L1029.04 505.144L1028.11 501.256L1024.22 502.186L1025.15 506.076ZM1025.15 506.076L1021.27 507.034L1022.22 510.89L1026.08 509.967L1025.15 506.076ZM931.583 449.109L930.651 445.219L930.651 445.219L931.583 449.109ZM873.989 542.293L874.923 546.183L878.785 545.255L877.885 541.387L873.989 542.293ZM873.987 542.294L873.053 538.405L869.166 539.338L870.097 543.226L873.987 542.294ZM890.979 613.212L887.089 614.144L888.021 618.035L891.912 617.101L890.979 613.212ZM890.993 613.208L894.865 612.205L893.879 608.402L890.059 609.319L890.993 613.208ZM984.33 669.262L983.398 665.372L983.398 665.372L984.33 669.262ZM1042.13 576.997L1041.2 573.107L1037.38 574.021L1038.23 577.857L1042.13 576.997ZM1042.14 576.994L1043.08 580.884L1046.97 579.952L1046.03 576.062L1042.14 576.994ZM1045.78 575.003C1045.75 574.881 1045.72 574.76 1045.69 574.638L1037.91 576.502C1037.94 576.612 1037.97 576.722 1037.99 576.832L1045.78 575.003ZM1045.69 574.638C1045.67 574.517 1045.64 574.395 1045.61 574.274L1037.83 576.173C1037.86 576.282 1037.89 576.392 1037.91 576.502L1045.69 574.638ZM1021.43 507.718L1037.83 576.155L1045.61 574.291L1029.21 505.854L1021.43 507.718ZM1029.22 505.864C1029.2 505.794 1029.18 505.722 1029.16 505.651L1021.39 507.515C1021.4 507.579 1021.42 507.643 1021.43 507.708L1029.22 505.864ZM1029.16 505.651C1029.15 505.58 1029.13 505.509 1029.11 505.437L1021.34 507.322C1021.35 507.386 1021.37 507.45 1021.39 507.515L1029.16 505.651ZM1021.26 507.008L1021.34 507.311L1029.12 505.447L1029.04 505.144L1021.26 507.008ZM1026.08 509.967L1026.08 509.966L1024.22 502.186L1024.22 502.186L1026.08 509.967ZM1029.04 505.119C1018.29 461.54 974.365 434.745 930.651 445.219L932.515 452.999C971.949 443.55 1011.58 467.723 1021.27 507.034L1029.04 505.119ZM930.651 445.219C886.937 455.692 859.923 499.484 870.093 543.2L877.885 541.387C868.71 501.952 893.081 462.447 932.515 452.999L930.651 445.219ZM874.921 546.183L874.923 546.183L873.055 538.404L873.053 538.405L874.921 546.183ZM894.869 612.28L877.877 541.362L870.097 543.226L887.089 614.144L894.869 612.28ZM890.059 609.319L890.045 609.322L891.912 617.101L891.926 617.098L890.059 609.319ZM887.12 614.212C898.269 657.223 941.87 683.548 985.262 673.152L983.398 665.372C944.255 674.751 904.921 651.003 894.865 612.205L887.12 614.212ZM985.262 673.152C1028.65 662.756 1055.59 619.53 1046.04 576.137L1038.23 577.857C1046.84 617 1022.54 655.994 983.398 665.372L985.262 673.152ZM1041.21 573.104L1041.2 573.107L1043.06 580.887L1043.08 580.884L1041.21 573.104ZM1038 576.849L1038.25 577.926L1046.03 576.062L1045.78 574.985L1038 576.849Z" fill="black" mask="url(#path-14-inside-1_104_266)"/>
</g>
<path d="M955.771 744.577C955.771 744.577 955.771 744.577 957 742.999L955.771 744.577L957.493 745.918L958.679 744.087L958.679 744.086L958.681 744.083L958.69 744.069L958.731 744.007C958.742 743.99 958.755 743.97 958.769 743.948C958.803 743.897 958.847 743.831 958.9 743.752C959.05 743.527 959.275 743.194 959.57 742.769C960.158 741.918 961.023 740.701 962.118 739.246C964.312 736.331 967.416 732.481 971.071 728.718C974.737 724.944 978.898 721.317 983.198 718.793C987.514 716.259 991.777 714.949 995.733 715.482C1038.17 721.204 1069.4 740.001 1089.67 768H816.375C832.674 738.658 855.858 719.982 893.445 711.412C895.046 711.047 897.224 711.158 899.947 711.791C902.642 712.418 905.715 713.519 909.028 714.975C915.655 717.888 923.052 722.136 930.004 726.536C936.945 730.929 943.39 735.442 948.104 738.859C950.459 740.567 952.379 741.999 953.709 743.003C954.374 743.505 954.891 743.9 955.241 744.169C955.416 744.303 955.55 744.406 955.639 744.475L955.739 744.552L955.764 744.572L955.77 744.576L955.771 744.577Z" fill="white" stroke="black" stroke-width="4"/>
<path d="M938.5 731.5L929.5 710L922.5 725L938.5 731.5Z" fill="black" stroke="black" stroke-width="4" stroke-linejoin="round"/>
<path d="M970 730.5L979 709L986 724L970 730.5Z" fill="black" stroke="black" stroke-width="4" stroke-linejoin="round"/>
<path d="M899.5 691L887.5 694L897.5 700.5L899.5 691Z" fill="black" stroke="black" stroke-width="4" stroke-linejoin="round"/>
<path d="M989 691L1000 694L993 700.5L989 691Z" fill="black" stroke="black" stroke-width="4" stroke-linejoin="round"/>
<path d="M988.5 568C988.5 582 995.5 593 995.5 593C995.5 593 992 599 982 597" stroke="black" stroke-width="4"/>
<path d="M966.781 510.959C951.029 505.752 929.419 516.02 916.487 524.422C915.512 525.056 916.264 526.455 917.365 526.079C938.626 518.825 959.755 517.146 970.108 517.251C970.982 517.26 971.474 516.225 970.905 515.561L967.216 511.253C967.1 511.117 966.95 511.015 966.781 510.959Z" fill="black" stroke="black"/>
<path d="M984.487 509.886C988.654 502.569 1005.61 503.885 1018.38 506.419C1019.55 506.651 1019.33 508.376 1018.14 508.431C1003.24 509.116 992.278 513.072 987.387 515.688C986.818 515.992 986.1 515.725 985.898 515.113L984.422 510.637C984.34 510.388 984.357 510.114 984.487 509.886Z" fill="black" stroke="black"/>
<path d="M1036.18 463.396C1027.86 503.294 929.5 508.896 909.678 508.896C857.656 514.823 882.626 577.262 892.178 608.396C884.678 609.396 885.678 618.396 856.678 546.896C833.478 489.696 899.184 454.834 948 443C996.816 431.165 1015.5 414.502 1015.5 414.502C1036.18 423 1041.12 439.718 1036.18 463.396Z" fill="black"/>
<path d="M1031.13 536.947L1015.32 483.507L1025.35 474.364C1036.11 511.452 1036.6 532.988 1031.13 536.947Z" fill="black"/>
<path d="M906 582C900.4 554.8 886.334 559.667 877 561L867 517L907.585 508.506C908.337 508.266 909.141 508.095 910 508L907.585 508.506C889.434 514.299 901.957 560.796 917 580L906 582Z" fill="black"/>
<path d="M850.989 479.363C859.835 474.909 870.281 477.487 874.399 479.333L862.628 494.213C865.663 489.357 856.134 482.29 850.989 479.363Z" fill="black"/>
<path d="M836 496.5C847.6 489.7 858.833 492 863 494L858.5 509.5C857.3 501.1 843 497.333 836 496.5Z" fill="black"/>
<path d="M1003 478C1009.83 478.167 1024.4 480.6 1028 489" stroke="black" stroke-width="20"/>
<path d="M1013.39 531.758C1016.84 505.489 992.66 493.87 980.138 491.344C976.649 477.241 974.846 459.025 996.031 481.758C1017.22 504.49 1016.47 523.128 1013.39 531.758Z" fill="black" stroke="black"/>
<path d="M1015.29 441.256C1004.88 448.32 961.645 466.313 948.137 470.497C941.815 472.454 929.625 476.33 922.236 478.626C922.015 478.712 921.812 478.824 921.654 478.948C921.496 479.072 921.39 479.203 921.349 479.323C921.308 479.443 921.335 479.547 921.427 479.622C921.518 479.697 921.668 479.74 921.86 479.744C956.177 477.471 923.944 512.96 917.628 502.114C910.099 494.046 892.502 504.394 890.487 505.808C888.068 507.535 886.186 509.374 884.993 511.174C883.493 513.34 885.22 521.36 898.438 525.39C898.594 525.446 898.676 525.545 898.669 525.673C898.663 525.8 898.569 525.948 898.403 526.092L895.146 528.749C895.041 528.83 894.916 528.907 894.778 528.974C894.64 529.042 894.492 529.098 894.343 529.141C894.194 529.183 894.046 529.211 893.909 529.222C893.771 529.233 893.646 529.228 893.541 529.206C831.276 513.735 864.627 493.78 869.695 491.022C869.871 490.921 870.016 490.806 870.114 490.691C870.212 490.575 870.26 490.462 870.252 490.365C868.914 480.153 878.305 464.387 907.65 451.31C923.385 444.212 940.131 439.54 950.454 437.689L950.532 437.661C962.975 435.03 970.887 428.764 979.81 420.414C979.933 420.299 980.088 420.189 980.265 420.089C980.442 419.989 980.638 419.902 980.841 419.833C981.043 419.765 981.248 419.716 981.443 419.689C981.637 419.663 981.818 419.66 981.972 419.68C987.418 420.418 987.808 422.213 986.751 424.273C986.713 424.382 986.731 424.479 986.802 424.552C986.873 424.626 986.994 424.674 987.154 424.691C987.313 424.708 987.505 424.693 987.707 424.649C987.91 424.605 988.117 424.532 988.305 424.439C997.331 419.384 1019.02 413.549 1026.13 408.126C1026.26 408.029 1026.43 407.941 1026.6 407.87C1026.78 407.8 1026.96 407.748 1027.14 407.719C1027.32 407.691 1027.48 407.687 1027.61 407.707C1027.75 407.727 1027.85 407.771 1027.92 407.835C1035.48 418.113 1029.71 431.622 1015.29 441.256Z" fill="#050504"/>
<path d="M895.5 564.176C893.17 563.408 890.655 563 888.08 563C877.587 563 869.08 569.5 870.08 581.5C871.122 594 878.587 598.5 889.08 598.5C890.248 598.5 891.391 598.397 892.5 598.201C893.711 597.987 894.881 597.661 896 597.235" stroke="black" stroke-width="8"/>
<path d="M896.5 597.036C894.22 597.979 891.713 598.5 889.08 598.5C878.587 598.5 871.122 594 870.08 581.5C869.08 569.5 877.587 563 888.08 563C891.217 563 894.267 563.606 897 564.73L896.5 597.036Z" fill="#F9C9B6"/>
<path d="M892.5 571.5C888.5 569.667 879.7 568.7 876.5 579.5" stroke="black" stroke-width="4"/>
<path d="M882 572C884.167 573.833 888.3 579.5 887.5 587.5" stroke="black" stroke-width="4"/>
<path d="M946.5 612.5C949 629.5 977.5 637.5 1003.5 618" stroke="black" stroke-width="4"/>
<circle cx="1017.78" cy="550.498" r="26" transform="rotate(2.11308 1017.78 550.498)" stroke="black" stroke-width="4"/>
<circle cx="950.495" cy="557.021" r="26" transform="rotate(2.11308 950.495 557.021)" stroke="black" stroke-width="4"/>
<path d="M992.54 556.571C992.618 554.451 991.851 552.386 990.407 550.832C988.963 549.277 986.961 548.36 984.84 548.282C982.72 548.203 980.655 548.971 979.101 550.415C977.546 551.859 976.629 553.861 976.551 555.981" stroke="black" stroke-width="4"/>
<path d="M924.938 558.08L894.756 562.47" stroke="black" stroke-width="4"/>
<ellipse cx="947.53" cy="556.403" rx="9" ry="13.5" transform="rotate(-6.77646 947.53 556.403)" fill="black"/>
<ellipse cx="1011.53" cy="546.403" rx="9" ry="13.5" transform="rotate(-6.27568 1011.53 546.403)" fill="black"/>
<path d="M1012.19 713.981L1000.61 694.499C1000.22 693.837 999.252 693.848 998.833 694.494C992.689 703.957 981.776 707.954 979.106 708.816C978.738 708.934 978.462 709.243 978.395 709.624L972.801 741.771C972.668 742.535 973.395 743.148 974.11 742.85C980.282 740.274 1002.56 730.178 1012.19 715.009C1012.38 714.696 1012.38 714.3 1012.19 713.981Z" fill="white" stroke="black" stroke-width="4"/>
<path d="M881.613 714.085L886.779 694.853C886.989 694.074 887.997 693.856 888.538 694.454C903.805 711.322 919.956 709.258 924.344 708.296C924.956 708.162 925.574 708.574 925.654 709.196L927.5 723.5L932.078 741.353C932.267 742.091 931.606 742.757 930.873 742.546C923.324 740.373 891.66 730.48 881.726 714.86C881.579 714.629 881.542 714.35 881.613 714.085Z" fill="white" stroke="black" stroke-width="4"/>
<path d="M964 776H943.375L945.781 766.212L942 721L964 732.186V776Z" fill="#252525" stroke="black" stroke-width="4"/>
<path d="M976.31 710C966.81 714 941 712 927 709C924.2 730.2 940.477 741 944.81 742.5H961.5C972.307 742.5 977.81 721.167 976.31 710Z" fill="#252525" stroke="black" stroke-width="4"/>
</g>
<rect x="759" y="377" width="396" height="396" rx="198" stroke="black" stroke-width="16"/>
<defs>
<clipPath id="clip0_104_266">
<rect width="200" height="320" fill="white" transform="translate(858 425)"/>
</clipPath>
</defs>
</svg>
