<svg width="610" height="154" viewBox="0 0 610 154" fill="none" xmlns="http://www.w3.org/2000/svg">
<rect x="55.4023" y="148.112" width="499.037" height="5.52439" fill="#45E58B"/>
<path d="M24.11 58.81H55.694V71.03H24.11V58.81ZM25.238 95H10.01V29.2H59.736V41.42H25.238V95ZM92.9158 95.752C87.1505 95.752 82.0745 94.624 77.6878 92.368C73.3638 90.112 70.0111 87.0413 67.6298 83.156C65.2485 79.208 64.0578 74.7273 64.0578 69.714C64.0578 64.638 65.2171 60.1573 67.5358 56.272C69.9171 52.324 73.1445 49.2533 77.2178 47.06C81.2911 44.804 85.8971 43.676 91.0358 43.676C95.9865 43.676 100.436 44.7413 104.384 46.872C108.394 48.94 111.559 51.948 113.878 55.896C116.196 59.7813 117.356 64.45 117.356 69.902C117.356 70.466 117.324 71.124 117.262 71.876C117.199 72.5653 117.136 73.2233 117.074 73.85H75.9958V65.296H109.366L103.726 67.834C103.726 65.202 103.193 62.9147 102.128 60.972C101.062 59.0293 99.5898 57.5253 97.7098 56.46C95.8298 55.332 93.6365 54.768 91.1298 54.768C88.6231 54.768 86.3985 55.332 84.4558 56.46C82.5758 57.5253 81.1031 59.0607 80.0378 61.066C78.9725 63.0087 78.4398 65.3273 78.4398 68.022V70.278C78.4398 73.0353 79.0351 75.4793 80.2258 77.61C81.4791 79.678 83.2025 81.276 85.3958 82.404C87.6518 83.4693 90.2838 84.002 93.2918 84.002C95.9865 84.002 98.3365 83.5947 100.342 82.78C102.41 81.9653 104.29 80.7433 105.982 79.114L113.784 87.574C111.465 90.206 108.551 92.2427 105.042 93.684C101.532 95.0627 97.4905 95.752 92.9158 95.752ZM127.119 95V25.252H141.783V95H127.119ZM155.392 95V44.428H170.056V95H155.392ZM162.724 37.378C160.029 37.378 157.836 36.5947 156.144 35.028C154.452 33.4613 153.606 31.5187 153.606 29.2C153.606 26.8813 154.452 24.9387 156.144 23.372C157.836 21.8053 160.029 21.022 162.724 21.022C165.419 21.022 167.612 21.774 169.304 23.278C170.996 24.7193 171.842 26.5993 171.842 28.918C171.842 31.362 170.996 33.3987 169.304 35.028C167.675 36.5947 165.481 37.378 162.724 37.378ZM213.557 95.752C209.296 95.752 205.567 94.812 202.371 92.932C199.175 91.052 196.669 88.2007 194.851 84.378C193.097 80.4927 192.219 75.6047 192.219 69.714C192.219 63.7607 193.065 58.8727 194.757 55.05C196.449 51.2273 198.893 48.376 202.089 46.496C205.285 44.616 209.108 43.676 213.557 43.676C218.32 43.676 222.581 44.7727 226.341 46.966C230.164 49.0967 233.172 52.1047 235.365 55.99C237.621 59.8753 238.749 64.45 238.749 69.714C238.749 75.0407 237.621 79.6467 235.365 83.532C233.172 87.4173 230.164 90.4253 226.341 92.556C222.581 94.6867 218.32 95.752 213.557 95.752ZM183.665 113.236V44.428H197.671V54.768L197.389 69.808L198.329 84.754V113.236H183.665ZM211.019 83.72C213.463 83.72 215.625 83.156 217.505 82.028C219.448 80.9 220.983 79.302 222.111 77.234C223.302 75.1033 223.897 72.5967 223.897 69.714C223.897 66.7687 223.302 64.262 222.111 62.194C220.983 60.126 219.448 58.528 217.505 57.4C215.625 56.272 213.463 55.708 211.019 55.708C208.575 55.708 206.382 56.272 204.439 57.4C202.497 58.528 200.961 60.126 199.833 62.194C198.705 64.262 198.141 66.7687 198.141 69.714C198.141 72.5967 198.705 75.1033 199.833 77.234C200.961 79.302 202.497 80.9 204.439 82.028C206.382 83.156 208.575 83.72 211.019 83.72ZM273.664 95.752C267.899 95.752 262.823 94.624 258.436 92.368C254.112 90.112 250.759 87.0413 248.378 83.156C245.997 79.208 244.806 74.7273 244.806 69.714C244.806 64.638 245.965 60.1573 248.284 56.272C250.665 52.324 253.893 49.2533 257.966 47.06C262.039 44.804 266.645 43.676 271.784 43.676C276.735 43.676 281.184 44.7413 285.132 46.872C289.143 48.94 292.307 51.948 294.626 55.896C296.945 59.7813 298.104 64.45 298.104 69.902C298.104 70.466 298.073 71.124 298.01 71.876C297.947 72.5653 297.885 73.2233 297.822 73.85H256.744V65.296H290.114L284.474 67.834C284.474 65.202 283.941 62.9147 282.876 60.972C281.811 59.0293 280.338 57.5253 278.458 56.46C276.578 55.332 274.385 54.768 271.878 54.768C269.371 54.768 267.147 55.332 265.204 56.46C263.324 57.5253 261.851 59.0607 260.786 61.066C259.721 63.0087 259.188 65.3273 259.188 68.022V70.278C259.188 73.0353 259.783 75.4793 260.974 77.61C262.227 79.678 263.951 81.276 266.144 82.404C268.4 83.4693 271.032 84.002 274.04 84.002C276.735 84.002 279.085 83.5947 281.09 82.78C283.158 81.9653 285.038 80.7433 286.73 79.114L294.532 87.574C292.213 90.206 289.299 92.2427 285.79 93.684C282.281 95.0627 278.239 95.752 273.664 95.752ZM367.294 96.128C362.092 96.128 357.298 95.3133 352.912 93.684C348.588 91.992 344.796 89.6107 341.538 86.54C338.342 83.4693 335.835 79.866 334.018 75.73C332.263 71.594 331.386 67.0507 331.386 62.1C331.386 57.1493 332.263 52.606 334.018 48.47C335.835 44.334 338.373 40.7307 341.632 37.66C344.89 34.5893 348.713 32.2393 353.1 30.61C357.486 28.918 362.312 28.072 367.576 28.072C373.404 28.072 378.636 29.0433 383.274 30.986C387.974 32.9287 391.922 35.7487 395.118 39.446L385.342 48.47C382.96 45.9633 380.36 44.1147 377.54 42.924C374.72 41.6707 371.649 41.044 368.328 41.044C365.132 41.044 362.218 41.5453 359.586 42.548C356.954 43.5507 354.666 44.992 352.724 46.872C350.844 48.752 349.371 50.9767 348.306 53.546C347.303 56.1153 346.802 58.9667 346.802 62.1C346.802 65.1707 347.303 67.9907 348.306 70.56C349.371 73.1293 350.844 75.3853 352.724 77.328C354.666 79.208 356.922 80.6493 359.492 81.652C362.124 82.6547 365.006 83.156 368.14 83.156C371.148 83.156 374.062 82.686 376.882 81.746C379.764 80.7433 382.553 79.0827 385.248 76.764L393.896 87.762C390.324 90.4567 386.156 92.5247 381.394 93.966C376.694 95.4073 371.994 96.128 367.294 96.128ZM379.984 85.788V61.066H393.896V87.762L379.984 85.788ZM438.027 95V85.13L437.087 82.968V65.296C437.087 62.1627 436.116 59.7187 434.173 57.964C432.293 56.2093 429.379 55.332 425.431 55.332C422.737 55.332 420.073 55.7707 417.441 56.648C414.872 57.4627 412.679 58.5907 410.861 60.032L405.597 49.786C408.355 47.8433 411.676 46.3393 415.561 45.274C419.447 44.2087 423.395 43.676 427.405 43.676C435.113 43.676 441.098 45.4933 445.359 49.128C449.621 52.7627 451.751 58.434 451.751 66.142V95H438.027ZM422.611 95.752C418.663 95.752 415.279 95.094 412.459 93.778C409.639 92.3993 407.477 90.5507 405.973 88.232C404.469 85.9133 403.717 83.3127 403.717 80.43C403.717 77.422 404.438 74.79 405.879 72.534C407.383 70.278 409.733 68.5233 412.929 67.27C416.125 65.954 420.293 65.296 425.431 65.296H438.873V73.85H427.029C423.583 73.85 421.201 74.414 419.885 75.542C418.632 76.67 418.005 78.08 418.005 79.772C418.005 81.652 418.726 83.156 420.167 84.284C421.671 85.3493 423.708 85.882 426.277 85.882C428.721 85.882 430.915 85.318 432.857 84.19C434.8 82.9993 436.21 81.276 437.087 79.02L439.343 85.788C438.278 89.0467 436.335 91.522 433.515 93.214C430.695 94.906 427.061 95.752 422.611 95.752ZM465.023 95V44.428H479.029V58.716L477.055 54.58C478.559 51.008 480.972 48.3133 484.293 46.496C487.614 44.616 491.656 43.676 496.419 43.676V57.212C495.792 57.1493 495.228 57.118 494.727 57.118C494.226 57.0553 493.693 57.024 493.129 57.024C489.118 57.024 485.86 58.1833 483.353 60.502C480.909 62.758 479.687 66.2987 479.687 71.124V95H465.023ZM502.027 95V86.164L531.919 50.82L534.457 55.708H502.685V44.428H546.301V53.264L516.409 88.608L513.777 83.72H547.147V95H502.027ZM587.564 95V85.13L586.624 82.968V65.296C586.624 62.1627 585.653 59.7187 583.71 57.964C581.83 56.2093 578.916 55.332 574.968 55.332C572.274 55.332 569.61 55.7707 566.978 56.648C564.409 57.4627 562.216 58.5907 560.398 60.032L555.134 49.786C557.892 47.8433 561.213 46.3393 565.098 45.274C568.984 44.2087 572.932 43.676 576.942 43.676C584.65 43.676 590.635 45.4933 594.896 49.128C599.158 52.7627 601.288 58.434 601.288 66.142V95H587.564ZM572.148 95.752C568.2 95.752 564.816 95.094 561.996 93.778C559.176 92.3993 557.014 90.5507 555.51 88.232C554.006 85.9133 553.254 83.3127 553.254 80.43C553.254 77.422 553.975 74.79 555.416 72.534C556.92 70.278 559.27 68.5233 562.466 67.27C565.662 65.954 569.83 65.296 574.968 65.296H588.41V73.85H576.566C573.12 73.85 570.738 74.414 569.422 75.542C568.169 76.67 567.542 78.08 567.542 79.772C567.542 81.652 568.263 83.156 569.704 84.284C571.208 85.3493 573.245 85.882 575.814 85.882C578.258 85.882 580.452 85.318 582.394 84.19C584.337 82.9993 585.747 81.276 586.624 79.02L588.88 85.788C587.815 89.0467 585.872 91.522 583.052 93.214C580.232 94.906 576.598 95.752 572.148 95.752Z" fill="#272727"/>
</svg>
